<?xml version="1.0" encoding="UTF-8" standalone="no"?>
<!-- Uploaded to: SVG Repo, www.svgrepo.com, Generator: SVG Repo Mixer Tools -->

<svg
   xmlns:dc="http://purl.org/dc/elements/1.1/"
   xmlns:cc="http://creativecommons.org/ns#"
   xmlns:rdf="http://www.w3.org/1999/02/22-rdf-syntax-ns#"
   xmlns:svg="http://www.w3.org/2000/svg"
   xmlns="http://www.w3.org/2000/svg"
   xmlns:sodipodi="http://sodipodi.sourceforge.net/DTD/sodipodi-0.dtd"
   xmlns:inkscape="http://www.inkscape.org/namespaces/inkscape"
   width="800px"
   height="800px"
   viewBox="0 -0.5 17 17"
   version="1.1"
   class="si-glyph si-glyph-house"
   id="svg14"
   sodipodi:docname="house-svgrepo-com.svg"
   inkscape:version="0.92.4 (5da689c313, 2019-01-14)">
  <metadata
     id="metadata18">
    <rdf:RDF>
      <cc:Work
         rdf:about="">
        <dc:format>image/svg+xml</dc:format>
        <dc:type
           rdf:resource="http://purl.org/dc/dcmitype/StillImage" />
        <dc:title>984</dc:title>
      </cc:Work>
    </rdf:RDF>
  </metadata>
  <sodipodi:namedview
     pagecolor="#ffffff"
     bordercolor="#666666"
     borderopacity="1"
     objecttolerance="10"
     gridtolerance="10"
     guidetolerance="10"
     inkscape:pageopacity="0"
     inkscape:pageshadow="2"
     inkscape:window-width="1920"
     inkscape:window-height="991"
     id="namedview16"
     showgrid="false"
     inkscape:zoom="0.295"
     inkscape:cx="-630.50847"
     inkscape:cy="400"
     inkscape:window-x="-9"
     inkscape:window-y="-9"
     inkscape:window-maximized="1"
     inkscape:current-layer="svg14" />
  <title
     id="title2">984</title>
  <defs
     id="defs4" />
  <g
     id="g12"
     style="fill:#ffffff;fill-opacity:0.39215687;fill-rule:evenodd;stroke:none;stroke-width:1"
     transform="translate(-0.49981241,-0.52290625)">
    <g
       transform="translate(1,1)"
       id="g10"
       style="fill:#ffffff;fill-opacity:0.39215687">
      <path
         d="M 15.794,7.77 11.984,3.864 V 1.0170625 l -0.968,0.022 V 2.767 L 8.502,0.245 c -0.278,-0.276 -0.726,-0.276 -1.003,0 L 0.206,7.771 c -0.275,0.277 -0.274,0.727 0,1.002 0.276,0.276 0.727,0.276 1.003,-10e-4 L 8,1.982 l 6.793,6.79 c 0.138,0.138 0.318,0.208 0.5,0.208 0.181,0 0.361,-0.068 0.501,-0.207 0.274,-0.277 0.274,-0.728 0,-1.003 z"
         class="si-glyph-fill"
         id="path6"
         style="fill:#ffffff;fill-opacity:0.39215687"
         inkscape:connector-curvature="0" />
      <path
         d="m 3.043,8.532 v 5.69 c 0,0.394 0.2180239,0.785813 0.5670239,0.785813 h 2.277 L 5.951,11.01477 h 4.073963 l -0.0019,3.993043 H 12.3261 c 0.349,0 0.63195,-0.390813 0.63195,-0.785813 V 8.531 L 8,3.625 Z"
         class="si-glyph-fill"
         id="path8"
         style="fill:#ffffff;fill-opacity:0.39215687"
         inkscape:connector-curvature="0" />
    </g>
  </g>
</svg>
